<svg width="53" height="50" viewBox="0 0 53 50" fill="none" xmlns="http://www.w3.org/2000/svg">
<path d="M7.05764 32.6571V39.7073C7.51981 39.7073 50.8606 29.5673 50.8606 29.5673C52.4867 29.1917 52.9831 28.8332 52.9831 28.0139V20.6735C52.9831 21.5953 51.6651 22.2952 50.2786 22.6195L7.04053 32.6571H7.05764Z" fill="#4CA785"/>
<path d="M7.05764 42.9507V50.0008C7.51981 50.0008 50.8606 39.8609 50.8606 39.8609C52.4867 39.4853 52.9831 39.1268 52.9831 38.3074V30.967C52.9831 31.8889 51.6651 32.5888 50.2786 32.9131L7.04053 42.9507H7.05764Z" fill="#24584F"/>
<path d="M9.77928 18.8464L13.0487 19.5804C17.5334 18.5391 22.9767 17.2759 29.1046 15.859L7.04053 10.8744V17.1052C7.04053 18.0099 7.77657 18.4026 9.77928 18.8464Z" fill="#C6C7C8"/>
<path d="M36.8245 14.0824L9.77928 7.97115C7.77657 7.52731 7.04053 7.13469 7.04053 6.22994V-0.000854492L51.4597 10.0367C50.9975 10.5659 50.1074 10.9927 49.166 11.2146L36.8245 14.0824Z" fill="#C6C7C8"/>
<path d="M6.49203 22.4294L0.175781 31.033C0.809118 30.8965 50.877 19.2372 50.877 19.2372C52.5031 18.8616 52.9995 18.5032 52.9995 17.6838V10.3434C52.9995 11.2652 51.6815 11.9651 50.295 12.2894L6.49203 22.4636V22.4294Z" fill="#6EBEBD"/>
</svg>
