<svg width="22" height="20" viewBox="0 0 22 20" fill="none" xmlns="http://www.w3.org/2000/svg">
<path d="M21.3669 11.7036C21.4639 10.7356 21.5139 9.76763 21.5139 8.81963C21.5139 4.21063 20.3709 1.68963 20.3229 1.58463C20.1969 1.31263 19.9559 1.11163 19.6659 1.03663C19.5019 0.994634 15.6049 -0.000366211 10.9979 -0.000366211C6.39093 -0.000366211 2.49393 0.993634 2.32993 1.03663C2.03693 1.11263 1.79393 1.31663 1.66893 1.59263C1.62093 1.69863 0.48993 4.25263 0.48993 8.82063C0.48993 9.77063 0.53893 10.7406 0.63593 11.7086C0.39293 12.1776 0.00292969 13.1106 0.00292969 14.2616C0.00292969 15.8526 0.73793 17.0116 0.82193 17.1376C0.98893 17.3896 1.25993 17.5536 1.56093 17.5816C1.57293 17.5826 1.91293 17.6146 2.50293 17.6606V18.9996C2.50293 19.5516 2.95093 19.9996 3.50293 19.9996C4.05493 19.9996 4.50293 19.5516 4.50293 18.9996V17.7976C6.22193 17.8996 8.53393 17.9996 11.0029 17.9996C13.4719 17.9996 15.7829 17.8996 17.5029 17.7966V18.9996C17.5029 19.5516 17.9509 19.9996 18.5029 19.9996C19.0549 19.9996 19.5029 19.5516 19.5029 18.9996V17.6606C20.0929 17.6146 20.4329 17.5826 20.4449 17.5816C20.7479 17.5526 21.0209 17.3876 21.1869 17.1326C21.2699 17.0046 22.0029 15.8376 22.0029 14.2606C22.0029 13.1016 21.6119 12.1716 21.3669 11.7036ZM3.32893 2.85663C4.49993 2.59863 7.58193 1.99963 10.9979 1.99963C14.4139 1.99963 17.5049 2.59963 18.6709 2.85663C18.9569 3.69663 19.5149 5.73363 19.5149 8.81963C19.5149 9.45363 19.4909 10.0976 19.4439 10.7456C18.9439 10.6586 18.2949 10.5546 17.5309 10.4526C17.5669 10.1886 17.5859 9.90563 17.5859 9.60263C17.5859 7.07663 16.3109 5.79463 13.7969 5.79463C12.5679 5.79463 11.6359 6.10163 11.0039 6.70963C10.3709 6.10163 9.43893 5.79463 8.21093 5.79463C5.69693 5.79463 4.42193 7.07563 4.42193 9.60263C4.42193 9.90563 4.43993 10.1886 4.47493 10.4526C3.71093 10.5546 3.06193 10.6586 2.56193 10.7456C2.51593 10.0986 2.49193 9.45363 2.49193 8.81963C2.49193 5.75663 3.04693 3.70463 3.33093 2.85663H3.32893ZM6.46093 10.2246C6.43393 10.0406 6.41993 9.83263 6.41993 9.60263C6.41993 8.04563 6.94693 7.79463 8.20893 7.79463C9.47093 7.79463 9.99793 8.04563 9.99793 9.60263C9.99793 9.74763 9.99193 9.88463 9.98093 10.0116C8.72493 10.0416 7.53393 10.1216 6.46093 10.2246ZM12.0239 10.0116C12.0129 9.88463 12.0079 9.74763 12.0079 9.60263C12.0079 8.04563 12.5349 7.79463 13.7969 7.79463C15.0589 7.79463 15.5859 8.04563 15.5859 9.60263C15.5859 9.83263 15.5719 10.0406 15.5439 10.2246C14.4719 10.1216 13.2809 10.0416 12.0239 10.0116ZM19.7119 15.6376C18.4049 15.7446 14.9009 15.9996 11.0039 15.9996C7.10693 15.9996 3.59993 15.7456 2.29493 15.6376C2.15993 15.3146 2.00393 14.8226 2.00393 14.2606C2.00393 13.6656 2.17993 13.1446 2.32093 12.8236C3.54193 12.5936 7.07393 11.9996 11.0039 11.9996C14.9339 11.9996 18.4699 12.5936 19.6879 12.8236C19.8299 13.1436 20.0039 13.6616 20.0039 14.2606C20.0039 14.8206 19.8479 15.3136 19.7119 15.6376Z" fill="#232323" fill-opacity="0.7"/>
</svg>
