<svg width="21" height="18" viewBox="0 0 21 18" fill="none" xmlns="http://www.w3.org/2000/svg">
<path d="M20.5819 11.9044L21.0049 8.99963H1.75649V3.24938C1.75649 2.28488 2.67345 1.49963 3.79974 1.49963C4.43907 1.49963 5.05126 1.76138 5.43486 2.19938L5.66169 2.45813L5.15898 4.92563L6.09697 6.17813L11.1565 2.92838L10.2185 1.67588L7.05948 1.55513L6.83527 1.29863C6.12237 0.484884 4.98733 -0.000366211 3.79886 -0.000366211C1.70657 -0.000366211 0.00488281 1.45688 0.00488281 3.24938V8.99963L0.459424 11.9044C0.68363 13.4404 1.56644 14.7851 2.84686 15.7421L2.19527 17.9996H4.0003L4.39616 16.6256C5.3464 17.0254 6.41138 17.2496 7.52978 17.2496H13.5124C14.6273 17.2496 15.6888 17.0276 16.6364 16.6301L17.0314 17.9996H18.8364L18.1866 15.7489C19.4714 14.7919 20.3585 13.4441 20.5836 11.9044H20.5819ZM7.52891 15.7496C4.82443 15.7496 2.53245 14.0164 2.19702 11.7184L2.01923 10.4996H19.0212L18.8443 11.7184C18.508 14.0164 16.216 15.7496 13.5115 15.7496H7.52891Z" fill="#232323" fill-opacity="0.7"/>
</svg>
