<svg width="20" height="17" viewBox="0 0 20 17" fill="none" xmlns="http://www.w3.org/2000/svg">
<path d="M13.9512 10.2907C14.3322 10.1993 14.7238 10.1526 15.1183 10.1524C16.2118 10.1525 17.203 10.515 17.9239 11.0177L17.924 11.0178C18.6334 11.5123 19.1318 12.181 19.1318 12.8167C19.1318 13.1507 18.9931 13.4266 18.7589 13.6414L18.7584 13.6419C18.5312 13.8506 18.2175 13.9996 17.8578 14.1088L13.9512 10.2907ZM13.9512 10.2907C14.2732 10.5836 14.5686 10.9025 14.8255 11.2456M13.9512 10.2907L15.1179 14.0312C15.1179 14.1581 15.1107 14.2819 15.0966 14.4024H15.1179C15.3531 14.4024 15.5844 14.3986 15.81 14.3902M14.8255 11.2456L14.2585 11.6701L14.8254 11.2454C14.8254 11.2455 14.8254 11.2455 14.8255 11.2456ZM14.8255 11.2456C15.3409 11.9335 15.8263 12.892 15.8263 14.0312C15.8263 14.1529 15.8208 14.2726 15.81 14.3902M15.81 14.3902C16.5898 14.3611 17.3001 14.2773 17.8577 14.1088L15.6747 15.1033C15.7414 14.8756 15.7873 14.6375 15.81 14.3902ZM1.28162 15.1879L1.28095 15.1874C0.925564 14.8871 0.715169 14.5025 0.715169 14.0312C0.715169 13.5726 0.915323 13.1012 1.24456 12.6611C1.57631 12.2184 2.04789 11.7935 2.6211 11.4257L2.62277 11.4247C3.76908 10.6845 5.34751 10.1524 7.09017 10.1524C8.83246 10.1524 10.4111 10.6853 11.558 11.424C12.1325 11.7944 12.6043 12.2186 12.9359 12.6604C13.2652 13.1015 13.4652 13.5737 13.4652 14.0312C13.4652 14.5013 13.2548 14.8857 12.8994 15.1882C12.5514 15.482 12.0647 15.6978 11.4952 15.8575C10.3515 16.1772 8.79025 16.2913 7.09017 16.2913C5.39006 16.2913 3.82897 16.1772 2.68632 15.8576C2.11516 15.6977 1.62844 15.4817 1.28162 15.1879ZM9.59451 6.75397C8.93031 7.41816 8.02948 7.7913 7.09017 7.7913C6.15086 7.7913 5.25002 7.41816 4.58583 6.75397C3.92164 6.08978 3.5485 5.18894 3.5485 4.24963C3.5485 3.31033 3.92164 2.40949 4.58583 1.7453C5.25002 1.08111 6.15086 0.707967 7.09017 0.707967C8.02948 0.707967 8.93032 1.08111 9.59451 1.7453C10.2587 2.40949 10.6318 3.31033 10.6318 4.24963C10.6318 5.18894 10.2587 6.08978 9.59451 6.75397ZM17.2429 5.6663C17.2429 6.22989 17.0191 6.77039 16.6206 7.1689C16.222 7.56742 15.6815 7.7913 15.1179 7.7913C14.5544 7.7913 14.0139 7.56742 13.6153 7.1689C13.2168 6.77039 12.9929 6.22989 12.9929 5.6663C12.9929 5.10272 13.2168 4.56221 13.6153 4.1637C14.0139 3.76518 14.5544 3.5413 15.1179 3.5413C15.6815 3.5413 16.222 3.76518 16.6206 4.1637C17.0191 4.56221 17.2429 5.10271 17.2429 5.6663Z" stroke="#232323" stroke-opacity="0.7" stroke-width="1.41667"/>
</svg>
